<?xml version="1.0" standalone="no"?>
<!DOCTYPE svg PUBLIC "-//W3C//DTD SVG 20010904//EN"
 "http://www.w3.org/TR/2001/REC-SVG-20010904/DTD/svg10.dtd">
<svg version="1.0" xmlns="http://www.w3.org/2000/svg"
 width="600.000000pt" height="332.000000pt" viewBox="0 0 600.000000 332.000000"
 preserveAspectRatio="xMidYMid meet">

<g transform="translate(0.000000,332.000000) scale(0.100000,-0.100000)"
fill="#000000" stroke="none">
<path d="M2475 3090 c-72 -10 -134 -31 -195 -67 -25 -15 -231 -161 -457 -326
l-413 -299 -2 -52 -1 -51 -6 46 -6 46 -207 -151 c-113 -83 -217 -159 -230
-168 -12 -10 -176 -128 -363 -263 -187 -136 -344 -250 -349 -256 -6 -5 134 -9
371 -9 l381 0 681 495 c374 272 697 503 718 514 48 24 135 40 190 34 l42 -5 4
113 3 114 2 -115 2 -115 48 -22 c26 -12 90 -54 142 -94 52 -39 102 -74 110
-77 12 -5 385 -272 425 -305 6 -4 114 -82 240 -174 127 -91 233 -171 237 -177
4 -5 8 8 11 30 l4 39 2 -40 c2 -39 5 -42 124 -127 l122 -88 774 0 c462 0 771
4 765 9 -5 5 -153 113 -329 241 -176 127 -360 260 -410 296 -49 36 -301 218
-560 405 -258 187 -490 355 -515 373 -245 177 -288 201 -397 222 -41 8 -81 14
-89 14 -12 0 -14 -36 -14 -210 0 -115 -4 -210 -8 -210 -5 0 -82 52 -173 117
-339 241 -355 250 -449 276 -74 21 -153 27 -225 17z m-907 -852 c30 -30 1 -98
-41 -98 -45 0 -70 48 -47 91 12 22 68 27 88 7z m2366 -33 c-7 -30 30 -59 57
-45 26 14 33 12 19 -5 -17 -20 -53 -19 -72 3 -21 23 -29 82 -11 75 8 -3 11
-14 7 -28z m-2511 -57 c-45 -22 -37 -78 12 -78 25 0 50 24 41 39 -4 6 -14 7
-24 4 -15 -6 -15 -5 -3 10 19 24 30 21 37 -8 13 -51 -48 -84 -88 -48 -33 29
-16 94 25 92 l22 0 -22 -11z m2447 -1 c-47 -24 -30 -83 22 -75 15 2 24 11 26
25 3 19 0 22 -15 16 -16 -6 -16 -5 -4 10 19 24 30 21 37 -8 13 -51 -48 -84
-88 -48 -35 32 -18 93 27 93 18 0 17 -2 -5 -13z m-2490 -97 c26 -26 25 -46 -5
-75 -29 -30 -36 -30 -65 -7 -42 34 -21 102 32 102 10 0 27 -9 38 -20z m2435
14 c41 -16 38 -81 -5 -104 -25 -13 -66 5 -73 32 -14 51 29 90 78 72z m-2550
-114 c21 -22 34 -28 49 -24 18 6 19 5 7 -10 -7 -9 -18 -16 -24 -16 -13 0 -77
60 -77 72 0 16 17 8 45 -22z m2444 -1 c24 -23 36 -29 53 -23 23 7 23 7 4 -15
l-20 -22 -38 38 c-34 33 -47 53 -34 53 3 0 18 -14 35 -31z"/>
<path d="M1496 2224 c-22 -21 -20 -40 5 -57 41 -29 83 8 59 53 -13 24 -43 26
-64 4z"/>
<path d="M1316 2047 c-38 -27 2 -95 42 -71 24 16 28 55 6 71 -10 7 -21 13 -24
13 -3 0 -14 -6 -24 -13z"/>
<path d="M3759 2039 c-18 -18 -19 -23 -6 -42 17 -26 43 -33 62 -17 19 16 19
45 -1 64 -20 21 -30 20 -55 -5z"/>
<path d="M783 1212 c-66 -7 -97 -99 -52 -156 18 -23 27 -26 83 -26 72 0 101
16 111 60 19 87 -36 134 -142 122z"/>
<path d="M4206 1209 c-50 -8 -66 -30 -66 -89 0 -66 27 -90 104 -90 70 0 91 10
105 51 12 35 0 102 -21 115 -21 13 -83 20 -122 13z"/>
<path d="M1405 1198 c-3 -7 -4 -182 -3 -388 l3 -375 98 -3 97 -3 0 102 c0 56
3 99 8 95 4 -4 21 -49 38 -99 l31 -92 111 -3 c62 -1 112 1 112 6 0 4 -25 70
-56 146 l-55 139 25 61 c13 33 40 98 60 144 l35 82 -109 0 -109 0 -38 -100
-38 -100 -5 198 -5 197 -98 3 c-72 2 -99 -1 -102 -10z"/>
<path d="M4960 820 l0 -390 100 0 100 0 2 197 3 197 26 7 c15 3 32 4 38 0 7
-5 11 -74 13 -201 l3 -195 103 -3 103 -3 -3 265 -3 264 -24 26 c-47 50 -134
56 -214 15 -21 -10 -40 -19 -42 -19 -3 0 -5 52 -5 115 l0 115 -100 0 -100 0 0
-390z"/>
<path d="M186 1119 c-13 -125 -16 -118 67 -121 69 -3 72 -4 74 -28 0 -14 1
-141 2 -283 l1 -258 103 3 102 3 3 283 2 282 65 0 c44 0 67 4 70 13 2 6 5 47
8 90 l4 77 -247 0 -247 0 -7 -61z"/>
<path d="M2870 805 l0 -376 103 3 102 3 3 373 2 372 -105 0 -105 0 0 -375z"/>
<path d="M5577 1114 c-4 -4 -10 -29 -13 -55 -6 -45 -8 -48 -38 -51 l-31 -3 -3
-77 -3 -78 31 0 30 0 0 -162 c0 -186 9 -220 70 -251 29 -15 51 -18 122 -13 48
2 92 7 98 11 5 3 10 42 10 87 l0 80 -34 -6 c-58 -11 -67 7 -64 138 l3 111 45
3 c24 2 48 9 52 15 4 7 8 42 8 80 l0 67 -49 0 -50 0 -3 53 -3 52 -85 3 c-47 1
-89 0 -93 -4z"/>
<path d="M1151 1019 c-59 -14 -122 -79 -147 -150 -14 -40 -19 -82 -19 -159 0
-92 3 -112 26 -161 49 -105 144 -146 275 -118 l69 14 -2 60 c-5 103 -4 102
-71 97 -53 -4 -61 -2 -76 19 -19 28 -22 154 -4 195 11 24 16 26 63 21 27 -2
57 -8 67 -11 20 -9 24 4 33 100 l7 72 -34 10 c-52 17 -139 22 -187 11z"/>
<path d="M2113 1020 c-112 -24 -164 -87 -183 -223 -12 -87 0 -188 30 -247 28
-55 93 -106 151 -120 52 -13 147 -7 227 12 40 10 42 12 42 47 0 20 -3 53 -7
75 l-6 38 -41 -6 c-122 -19 -141 -19 -163 0 -12 11 -24 29 -28 42 l-6 22 134
0 c114 0 136 2 141 16 10 26 7 176 -4 216 -13 47 -55 97 -95 114 -42 17 -141
25 -192 14z m105 -203 c18 -37 9 -47 -44 -47 -40 0 -44 2 -44 24 0 57 64 74
88 23z"/>
<path d="M2741 1023 c-19 -3 -45 -12 -59 -21 -19 -12 -27 -13 -30 -4 -2 8 -32
12 -98 12 l-94 0 2 -287 3 -288 100 0 100 0 5 188 c6 211 4 207 83 207 l47 0
2 80 c1 44 2 88 2 97 1 19 -11 22 -63 16z"/>
<path d="M3452 1016 c-23 -8 -50 -20 -58 -27 -14 -11 -18 -10 -29 4 -10 14
-29 17 -104 17 l-91 0 2 -287 3 -288 100 0 100 0 5 194 c5 185 6 194 26 201
40 15 43 3 46 -200 l3 -195 103 -3 102 -3 0 255 c0 176 -4 263 -12 281 -23 52
-118 76 -196 51z"/>
<path d="M3827 1016 c-81 -22 -127 -82 -127 -168 0 -103 40 -157 156 -209 108
-49 89 -73 -33 -45 -41 10 -77 16 -80 13 -2 -3 -7 -41 -10 -85 l-6 -79 64 -10
c97 -17 198 -11 237 12 49 29 72 81 72 160 0 103 -28 142 -142 195 -104 49
-89 69 32 46 41 -8 78 -11 81 -8 4 4 10 43 14 88 l7 81 -89 12 c-107 13 -115
13 -176 -3z"/>
<path d="M4571 1019 c-56 -11 -116 -50 -135 -88 -38 -73 -27 -192 23 -252 l29
-34 -30 -18 c-57 -35 -68 -117 -22 -168 16 -18 16 -20 1 -37 -21 -23 -22 -81
-2 -109 22 -32 104 -53 205 -53 179 0 260 57 260 182 0 101 -43 128 -205 128
-87 0 -105 3 -105 15 0 11 12 15 50 15 83 0 147 19 184 53 52 49 71 143 41
201 -8 15 -15 30 -15 32 0 2 18 4 40 4 l41 0 -3 68 -3 67 -155 2 c-85 0 -175
-3 -199 -8z m113 -175 c12 -31 6 -91 -10 -105 -35 -29 -76 40 -55 94 12 31 55
38 65 11z m46 -439 c0 -12 -15 -15 -75 -15 -60 0 -75 3 -75 15 0 12 15 15 75
15 60 0 75 -3 75 -15z"/>
<path d="M720 720 l0 -290 100 0 100 0 0 290 0 290 -100 0 -100 0 0 -290z"/>
<path d="M4145 998 c-3 -7 -4 -137 -3 -288 l3 -275 100 0 100 0 0 285 0 285
-98 3 c-73 2 -99 -1 -102 -10z"/>
</g>
</svg>
